<?xml version="1.0" standalone="no"?><!DOCTYPE svg PUBLIC "-//W3C//DTD SVG 1.1//EN" "http://www.w3.org/Graphics/SVG/1.1/DTD/svg11.dtd"><svg t="1587515625245" class="icon" viewBox="0 0 1024 1024" version="1.1" xmlns="http://www.w3.org/2000/svg" p-id="1316" xmlns:xlink="http://www.w3.org/1999/xlink" width="200" height="200"><defs><style type="text/css"></style></defs><path d="M899.6 924.8H122.8c-14.6 0-26.6-12-26.6-26.6V315c0-14.6 12-26.6 26.6-26.6h776.8c14.6 0 26.6 12 26.6 26.6v583.2c0 14.6-11.9 26.6-26.6 26.6z" fill="#e6e6e6" p-id="1317"></path><path d="M891 634.4H134.8c-38.5 0-70-31.5-70-70V269.9c0-10.7 8.8-19.5 19.5-19.5h857.1c10.8 0 19.6 8.8 19.6 19.6v294.4c0 38.5-31.5 70-70 70z" fill="#e6e6e6" p-id="1318"></path><path d="M891 594.4H134.8c-38.5 0-70-31.5-70-70V229.9c0-10.7 8.8-19.5 19.5-19.5h857.1c10.8 0 19.6 8.8 19.6 19.6v294.4c0 38.5-31.5 70-70 70z" fill="#e6e6e6" p-id="1319"></path><path d="M192.9 210.1h106.3v384.3H192.9zM726.6 210.1h106.3v384.3H726.6z" fill="#e6e6e6" p-id="1320"></path><path d="M736 165.6H288c-18.5 0-33.7-15.1-33.7-33.7 0-18.5 15.1-33.7 33.7-33.7h448c18.5 0 33.7 15.1 33.7 33.7 0 18.5-15.2 33.7-33.7 33.7z" fill="#e6e6e6" p-id="1321"></path><path d="M288 210.4c-6.1 0-11.2-5-11.2-11.2v-22.5c0-6.1 5-11.2 11.2-11.2 6.1 0 11.2 5 11.2 11.2v22.5c0 6.2-5.1 11.2-11.2 11.2zM737.7 210.4c-6.1 0-11.2-5-11.2-11.2v-22.5c0-6.1 5-11.2 11.2-11.2 6.1 0 11.2 5 11.2 11.2v22.5c0 6.2-5 11.2-11.2 11.2zM479 686.8c-9.8 0-16.2-6.4-17-17.2l-10-110.7c0.1-9.3 7.7-16.9 17-16.9h87.8c9.3 0 16.9 7.6 17 16.9l-10 110.6c-1.8 11-8 17.4-17 17.4H479z" fill="#e6e6e6" p-id="1322"></path><path d="M556.8 545c7.6 0 13.9 6.1 14 13.8l-10 110.3c-0.8 4.6-3.6 14.7-14 14.7H479c-8.3 0-13.3-5.1-14-14.4l-10-110.5c0.1-7.6 6.4-13.8 14-13.8h87.8m0-6.1H469c-11 0-20 9-20 20l10 110.8c1 12.9 9 20 20 20h67.8c11 0 18.1-8.1 20-20l10-110.8c0-11-9-20-20-20z" fill="#e6e6e6" p-id="1323"></path><path d="M491 612.2c-3.4 0-7.4-1.2-7.9-6.8v-0.5l-6.4-22.5c0.4-3.2 3.8-5.8 7.9-5.8h56.7c4 0 7.5 2.6 7.9 5.8l-6.3 22.3v0.2c-0.6 3.3-2.5 7.2-8 7.2H491z" fill="#e6e6e6" p-id="1324"></path><path d="M541.2 581.7c1.3 0 2.2 0.5 2.6 0.9l-5.8 20.5-0.1 0.5-0.1 0.5c-0.6 3.1-1.9 3.1-3.1 3.1H491c-2.8 0-2.8-0.9-2.9-2.2l-0.1-1-0.3-0.9-5.8-20.5c0.4-0.4 1.3-0.9 2.6-0.9h56.7m0-10h-56.7c-7.1 0-12.9 5.1-12.9 11.3l6.5 22.8c0.6 7.3 5.8 11.3 12.9 11.3h43.7c7.1 0 11.7-4.6 12.9-11.3l6.5-22.8c0-6.2-5.8-11.3-12.9-11.3z" fill="#e6e6e6" p-id="1325"></path><path d="M549.9 647.3h-74.3c-1.8 0-3.3-1.5-3.3-3.3 0-1.8 1.5-3.3 3.3-3.3h74.3c1.8 0 3.3 1.5 3.3 3.3 0 1.8-1.5 3.3-3.3 3.3z" fill="#e6e6e6" p-id="1326"></path><path d="M549.9 640.8h-74.3c-1.8 0-3.3 1.5-3.3 3.3 0 1.8 1.5 3.3 3.3 3.3h74.3c1.8 0 3.3-1.5 3.3-3.3 0-1.8-1.5-3.3-3.3-3.3z" fill="#e6e6e6" p-id="1327"></path><path d="M570.2 597.7h-23.9c-1.8 0-3.3-1.5-3.3-3.3 0-1.8 1.5-3.3 3.3-3.3h23.9c1.8 0 3.3 1.5 3.3 3.3 0 1.8-1.5 3.3-3.3 3.3z" fill="#e6e6e6" p-id="1328"></path><path d="M570.2 591.2h-23.9c-1.8 0-3.3 1.5-3.3 3.3s1.5 3.3 3.3 3.3h23.9c1.8 0 3.3-1.5 3.3-3.3s-1.5-3.3-3.3-3.3z" fill="#e6e6e6" p-id="1329"></path><path d="M481.6 597.7h-23.9c-1.8 0-3.3-1.5-3.3-3.3 0-1.8 1.5-3.3 3.3-3.3h23.9c1.8 0 3.3 1.5 3.3 3.3-0.1 1.8-1.6 3.3-3.3 3.3z" fill="#e6e6e6" p-id="1330"></path><path d="M481.6 591.2h-23.9c-1.8 0-3.3 1.5-3.3 3.3s1.5 3.3 3.3 3.3h23.9c1.8 0 3.3-1.5 3.3-3.3s-1.6-3.3-3.3-3.3z" fill="#e6e6e6" p-id="1331"></path><path d="M543.1 659.8h-60.3c-1.8 0-3.3-1.5-3.3-3.3 0-1.8 1.5-3.3 3.3-3.3h60.3c1.8 0 3.3 1.5 3.3 3.3-0.1 1.8-1.6 3.3-3.3 3.3z" fill="#e6e6e6" p-id="1332"></path><path d="M543.1 653.3h-60.3c-1.8 0-3.3 1.5-3.3 3.3 0 1.8 1.5 3.3 3.3 3.3h60.3c1.8 0 3.3-1.5 3.3-3.3-0.1-1.8-1.6-3.3-3.3-3.3z" fill="#e6e6e6" p-id="1333"></path><path d="M534.8 672.3H491c-1.8 0-3.3-1.5-3.3-3.3 0-1.8 1.5-3.3 3.3-3.3h43.8c1.8 0 3.3 1.5 3.3 3.3 0 1.8-1.5 3.3-3.3 3.3z" fill="#e6e6e6" p-id="1334"></path><path d="M534.8 665.8H491c-1.8 0-3.3 1.5-3.3 3.3 0 1.8 1.5 3.3 3.3 3.3h43.8c1.8 0 3.3-1.5 3.3-3.3 0-1.8-1.5-3.3-3.3-3.3z" fill="#e6e6e6" p-id="1335"></path></svg>